<svg width="734" height="149" viewBox="0 0 734 149" fill="none" xmlns="http://www.w3.org/2000/svg">
<g clip-path="url(#clip0_924_269)">
<path d="M99.4502 128.424L98.4074 149H46.1279L47.0937 120.355L47.3807 111.901H70.0141L99.4502 128.424Z" fill="#00072C"/>
<path d="M44.3921 0L97.1405 0.0279944L96.3846 31.4587L96.2936 35.4829L96.2376 37.6944H73.4152L43.8882 21.0588L44.3921 0Z" fill="#00072C"/>
<path d="M101.193 34.538V35.4058L101.214 34.531H101.193V34.538Z" fill="#E4F7CA"/>
<path d="M142.618 90.6528L117.297 132.826L104.504 125.646L80.0225 111.901H101.039V96.3077L102.152 95.7408L127.627 82.7374L142.618 90.6528Z" fill="#00072C"/>
<path d="M42.5591 54.736L16.2304 68.3063L0.959473 59.733L26.3154 17.4895L63.1 37.7854L42.4891 37.9184L42.5591 54.736Z" fill="#00072C"/>
<path d="M143.604 68.9711L101.053 90.7927L101.193 35.4058V34.538L101.214 34.531L119.249 25.5658L143.604 68.9711Z" fill="#00072C"/>
<path d="M96.3008 31.5006V35.4828L96.3848 31.4586L96.3008 31.5006Z" fill="#E4F7CA"/>
<path d="M42.5654 60.3069V117.065L42.2995 117.191L24.3761 125.59L0 82.1355L16.1318 73.8632L16.3137 73.7722L42.5654 60.3069Z" fill="#00072C"/>
</g>
<path d="M239.712 40.5983V112.73H221.102V58.4868H199.895V112.73H181.285V58.4868H170.898V40.5983H181.285V39.877C181.285 19.7764 192.586 9.72605 215.187 9.72605C220.284 9.72605 225.911 10.3993 232.066 11.7457V28.7687C225.622 27.9993 219.996 27.6146 215.187 27.6146C209.994 27.6146 206.147 28.5283 203.646 30.3556C201.146 32.0868 199.895 35.2605 199.895 39.877V40.5983H239.712Z" fill="#00072C"/>
<path d="M266.637 84.3099C269.138 93.3503 275.918 97.8706 286.978 97.8706C294.095 97.8706 299.481 95.4662 303.135 90.6574L318.139 99.3132C311.022 109.604 300.539 114.749 286.69 114.749C274.764 114.749 265.194 111.143 257.981 103.93C250.768 96.7165 247.162 87.6279 247.162 76.6639C247.162 65.7962 250.72 56.7557 257.837 49.5426C264.954 42.2332 274.091 38.5786 285.247 38.5786C295.826 38.5786 304.53 42.2332 311.358 49.5426C318.283 56.8519 321.745 65.8923 321.745 76.6639C321.745 79.0683 321.505 81.617 321.024 84.3099H266.637ZM266.349 69.8836H303.135C302.078 64.9787 299.866 61.324 296.499 58.9196C293.229 56.5153 289.479 55.3131 285.247 55.3131C280.246 55.3131 276.11 56.6114 272.84 59.2082C269.57 61.7087 267.406 65.2672 266.349 69.8836Z" fill="#00072C"/>
<path d="M328.966 112.73V7.41785H347.576V112.73H328.966Z" fill="#00072C"/>
<path d="M413.514 11.7457H432.124V112.73H413.514V104.218C408.033 111.239 400.242 114.749 390.144 114.749C380.43 114.749 372.111 111.095 365.186 103.785C358.358 96.3799 354.944 87.3394 354.944 76.6639C354.944 65.9885 358.358 56.9961 365.186 49.6868C372.111 42.2813 380.43 38.5786 390.144 38.5786C400.242 38.5786 408.033 42.089 413.514 49.1098V11.7457ZM379.18 91.3787C383.027 95.1296 387.836 97.005 393.606 97.005C399.377 97.005 404.137 95.1296 407.888 91.3787C411.639 87.5317 413.514 82.6268 413.514 76.6639C413.514 70.7011 411.639 65.8442 407.888 62.0934C404.137 58.2464 399.377 56.3229 393.606 56.3229C387.836 56.3229 383.027 58.2464 379.18 62.0934C375.429 65.8442 373.554 70.7011 373.554 76.6639C373.554 82.6268 375.429 87.5317 379.18 91.3787Z" fill="#00072C"/>
<path d="M459.977 61.0836C459.977 63.0071 461.228 64.594 463.728 65.8442C466.325 66.9983 469.45 68.0563 473.105 69.018C476.76 69.8836 480.414 71.0377 484.069 72.4803C487.724 73.8268 490.801 76.135 493.302 79.4049C495.899 82.6749 497.197 86.7623 497.197 91.6673C497.197 99.0728 494.408 104.795 488.83 108.835C483.348 112.778 476.471 114.749 468.2 114.749C453.389 114.749 443.291 109.027 437.905 97.582L454.062 88.4935C456.178 94.7449 460.891 97.8706 468.2 97.8706C474.836 97.8706 478.154 95.8028 478.154 91.6673C478.154 89.7438 476.856 88.205 474.259 87.0509C471.759 85.8006 468.681 84.6946 465.026 83.7328C461.372 82.7711 457.717 81.5689 454.062 80.1262C450.408 78.6836 447.282 76.4235 444.685 73.3459C442.185 70.1721 440.935 66.2289 440.935 61.5164C440.935 54.3994 443.531 48.8212 448.725 44.7819C454.014 40.6464 460.554 38.5786 468.344 38.5786C474.211 38.5786 479.549 39.925 484.358 42.6179C489.166 45.2147 492.965 48.9655 495.754 53.8704L479.885 62.5262C477.577 57.6213 473.73 55.1688 468.344 55.1688C465.94 55.1688 463.92 55.6978 462.285 56.7557C460.747 57.8136 459.977 59.2562 459.977 61.0836Z" fill="#00072C"/>
<path d="M546.08 38.5786C555.793 38.5786 564.064 42.2813 570.893 49.6868C577.817 56.9961 581.28 65.9885 581.28 76.6639C581.28 87.3394 577.817 96.3799 570.893 103.785C564.064 111.095 555.793 114.749 546.08 114.749C535.981 114.749 528.191 111.239 522.709 104.218V141.582H504.099V40.5983H522.709V49.1098C528.191 42.089 535.981 38.5786 546.08 38.5786ZM528.335 91.3787C532.086 95.1296 536.847 97.005 542.617 97.005C548.388 97.005 553.148 95.1296 556.899 91.3787C560.746 87.5317 562.67 82.6268 562.67 76.6639C562.67 70.7011 560.746 65.8442 556.899 62.0934C553.148 58.2464 548.388 56.3229 542.617 56.3229C536.847 56.3229 532.086 58.2464 528.335 62.0934C524.584 65.8442 522.709 70.7011 522.709 76.6639C522.709 82.6268 524.584 87.5317 528.335 91.3787Z" fill="#00072C"/>
<path d="M604.358 84.3099C606.859 93.3503 613.639 97.8706 624.699 97.8706C631.816 97.8706 637.202 95.4662 640.857 90.6574L655.86 99.3132C648.743 109.604 638.26 114.749 624.411 114.749C612.485 114.749 602.916 111.143 595.703 103.93C588.489 96.7165 584.883 87.6279 584.883 76.6639C584.883 65.7962 588.441 56.7557 595.558 49.5426C602.675 42.2332 611.812 38.5786 622.968 38.5786C633.547 38.5786 642.251 42.2332 649.08 49.5426C656.004 56.8519 659.467 65.8923 659.467 76.6639C659.467 79.0683 659.226 81.617 658.745 84.3099H604.358ZM604.07 69.8836H640.857C639.799 64.9787 637.587 61.324 634.221 58.9196C630.951 56.5153 627.2 55.3131 622.968 55.3131C617.967 55.3131 613.832 56.6114 610.562 59.2082C607.292 61.7087 605.128 65.2672 604.07 69.8836Z" fill="#00072C"/>
<path d="M700.459 114.749C689.591 114.749 680.502 111.095 673.193 103.785C665.98 96.476 662.373 87.4356 662.373 76.6639C662.373 65.8923 665.98 56.8519 673.193 49.5426C680.502 42.2332 689.591 38.5786 700.459 38.5786C707.479 38.5786 713.875 40.2617 719.646 43.6278C725.416 46.9939 729.792 51.5141 732.773 57.1885L716.76 66.5656C715.318 63.5841 713.106 61.2278 710.124 59.4967C707.239 57.7655 703.969 56.9 700.314 56.9C694.736 56.9 690.12 58.7754 686.465 62.5262C682.81 66.1809 680.983 70.8934 680.983 76.6639C680.983 82.3383 682.81 87.0509 686.465 90.8017C690.12 94.4563 694.736 96.2837 700.314 96.2837C704.065 96.2837 707.383 95.4662 710.268 93.8312C713.25 92.1001 715.462 89.7438 716.905 86.7623L733.062 95.9952C729.888 101.669 725.416 106.238 719.646 109.7C713.875 113.066 707.479 114.749 700.459 114.749Z" fill="#00072C"/>
<defs>
<clipPath id="clip0_924_269">
<rect width="143.604" height="149" fill="white"/>
</clipPath>
</defs>
</svg>
